<svg xmlns="http://www.w3.org/2000/svg" width="60" height="54" viewBox="0 0 60 54"><path fill="none" d="M0 0h60v54H0z" clip-rule="evenodd"/><path fill="#1d1d1f" d="M31 2H3a3 3 0 0 0-3 3v42a3 3 0 0 0 3 3h28a3 3 0 0 0 3-3V5a3 3 0 0 0-3-3zm1 45a1 1 0 0 1-1 1H3a1 1 0 0 1-1-1V5a1 1 0 0 1 1-1h28a1 1 0 0 1 1 1v12.897zm7.3-30c-1.27 0-2.3 1.03-2.3 2.302v28.396A2.301 2.301 0 0 0 39.3 50h18.4c1.27 0 2.3-1.03 2.3-2.302V19.302A2.301 2.301 0 0 0 57.7 17zM58 47.256c0 .411-.327.744-.73.744H39.73a.737.737 0 0 1-.73-.744V19.744c0-.411.327-.744.73-.744h17.54c.403 0 .73.333.73.744z"/></svg>