<svg xmlns="http://www.w3.org/2000/svg" width="58" height="54" viewBox="0 0 58 54"><path fill="none" d="M0 0h58v54H0z"/><path fill="#1d1d1f" d="M49.63 47.5a1.13 1.13 0 1 1-1.13-1.13 1.131 1.131 0 0 1 1.13 1.13zM58 13v34a3 3 0 0 1-3 3H42a2.98 2.98 0 0 1-2.013-.789 4.299 4.299 0 0 0 .418-.653 4.72 4.72 0 0 0 .425-1.254 9.805 9.805 0 0 0 .134-1.862V45H57V15H40.964v-3.691a15.048 15.048 0 0 0-.042-1.1A2.979 2.979 0 0 1 42 10h13a3 3 0 0 1 3 3zm-13.125-.5a.375.375 0 1 0-.375.375.375.375 0 0 0 .375-.375zm6.125 0a.25.25 0 0 0-.25-.25h-4.5a.25.25 0 0 0 0 .5h4.5a.25.25 0 0 0 .25-.25zm-.75 35a1.75 1.75 0 1 0-1.75 1.75 1.75 1.75 0 0 0 1.75-1.75zM5.931 13.255a2.17 2.17 0 0 1-3.161-.987 2.072 2.072 0 0 1 1.855-2.804 2.064 2.064 0 0 1 1.306 3.79zM9.61 12.04a2.074 2.074 0 0 0-1.787 2.988 2.184 2.184 0 0 0 3.106.792 2.064 2.064 0 0 0-1.32-3.78zm-4.897 2.58a2.071 2.071 0 0 0-1.937 2.816 2.16 2.16 0 0 0 3.807.298 2.066 2.066 0 0 0-1.87-3.114zm13.855 33.939a4.282 4.282 0 0 0 .676.955 4.285 4.285 0 0 1-1.011.33 7.537 7.537 0 0 1-1.206.119c-.371.011-.864.01-1.254.01H5.296l-.33-.001a9.378 9.378 0 0 1-1.715-.128 4.24 4.24 0 0 1-1.115-.373 3.674 3.674 0 0 1-1.622-1.61 4.153 4.153 0 0 1-.377-1.107 9.923 9.923 0 0 1-.129-1.866V11.861a9.925 9.925 0 0 1 .13-1.865 4.154 4.154 0 0 1 .376-1.107 3.673 3.673 0 0 1 1.622-1.61 4.24 4.24 0 0 1 1.115-.374 7.519 7.519 0 0 1 1.206-.118c.372-.012.864-.01 1.255-.01H16.518a9.376 9.376 0 0 1 1.714.128 4.285 4.285 0 0 1 1.01.33 4.283 4.283 0 0 0-.675.956 4.721 4.721 0 0 0-.426 1.254 9.813 9.813 0 0 0-.133 1.862V45.44a9.816 9.816 0 0 0 .133 1.864 4.719 4.719 0 0 0 .426 1.256zm-6.18-36.03v-.637c0-.16-.003-.292-.007-.414a4.007 4.007 0 0 0-.08-.709 2.718 2.718 0 0 0-.251-.7A2.558 2.558 0 0 0 10.979 9a2.714 2.714 0 0 0-.7-.251 3.98 3.98 0 0 0-.709-.08 13.569 13.569 0 0 0-.414-.007H5.145c-.16 0-.293.002-.414.007a3.983 3.983 0 0 0-.71.08A2.71 2.71 0 0 0 3.322 9a2.558 2.558 0 0 0-1.07 1.07 2.718 2.718 0 0 0-.25.7 3.98 3.98 0 0 0-.08.71c-.005.12-.006.253-.007.413v4.418c0 .16.002.292.006.414a3.98 3.98 0 0 0 .08.709 2.716 2.716 0 0 0 .252.7 2.557 2.557 0 0 0 1.07 1.07 2.706 2.706 0 0 0 .699.25 3.984 3.984 0 0 0 .71.08c.121.005.253.006.413.007H9.157c.16 0 .293-.002.414-.006a3.98 3.98 0 0 0 .71-.08 2.71 2.71 0 0 0 .7-.252 2.557 2.557 0 0 0 1.069-1.07 2.716 2.716 0 0 0 .251-.7 4.007 4.007 0 0 0 .08-.708c.004-.122.006-.254.006-.414v-.636zm7.342 36.02a3.3 3.3 0 0 1-.27-.444 3.517 3.517 0 0 1-.202-.482 3.523 3.523 0 0 0 .201.482 3.305 3.305 0 0 0 .27.443zM23.864 7.75H35.26l.288.001a7.456 7.456 0 0 1 1.342.096 2.755 2.755 0 0 1 .732.245 2.283 2.283 0 0 1 1.006 1.007 2.748 2.748 0 0 1 .245.73 8.106 8.106 0 0 1 .097 1.487v34.119a8.095 8.095 0 0 1-.097 1.485 2.75 2.75 0 0 1-.245.731 2.283 2.283 0 0 1-1.007 1.007 2.75 2.75 0 0 1-.73.245 5.6 5.6 0 0 1-.914.088c-.253.008-.57.009-.86.009H23.721l-.287-.001a7.45 7.45 0 0 1-1.342-.096 2.75 2.75 0 0 1-.731-.245 2.283 2.283 0 0 1-1.007-1.007 2.75 2.75 0 0 1-.245-.73 8.035 8.035 0 0 1-.096-1.484V11.315a8.04 8.04 0 0 1 .096-1.485 2.753 2.753 0 0 1 .245-.731 2.286 2.286 0 0 1 1.007-1.007 2.757 2.757 0 0 1 .731-.245 5.608 5.608 0 0 1 .913-.088c.253-.008.571-.009.86-.009m0-1c-.3 0-.629 0-.89.009a6.65 6.65 0 0 0-1.075.107 3.76 3.76 0 0 0-.993.335 3.285 3.285 0 0 0-1.444 1.444 3.76 3.76 0 0 0-.335.993 8.948 8.948 0 0 0-.115 1.674v34.126a8.947 8.947 0 0 0 .115 1.674 3.759 3.759 0 0 0 .335.993 3.285 3.285 0 0 0 1.444 1.444 3.756 3.756 0 0 0 .993.335 8.288 8.288 0 0 0 1.527.114l.293.001H35.117c.299 0 .629 0 .89-.009a6.649 6.649 0 0 0 1.074-.106 3.75 3.75 0 0 0 .993-.335 3.284 3.284 0 0 0 1.445-1.445 3.759 3.759 0 0 0 .335-.993 8.972 8.972 0 0 0 .115-1.673V11.312a8.973 8.973 0 0 0-.115-1.674 3.76 3.76 0 0 0-.335-.993 3.284 3.284 0 0 0-1.445-1.444 3.754 3.754 0 0 0-.993-.335 8.299 8.299 0 0 0-1.527-.115H23.864zm7.729 1.51H27.42a.914.914 0 0 0 0 1.828h4.173a.914.914 0 1 0 0-1.828zm.052 1.364a.45.45 0 1 1 .45-.45.45.45 0 0 1-.45.45z"/></svg>